<?xml version="1.0" encoding="UTF-8" standalone="no"?>
<!-- Created with Inkscape (http://www.inkscape.org/) -->

<svg
   width="206.056"
   height="137.11501"
   viewBox="0 0 54.519604 36.278758"
   version="1.1"
   id="svg5"
   xml:space="preserve"
   sodipodi:docname="logo.svg"
   inkscape:version="1.2 (dc2aedaf03, 2022-05-15)"
   xmlns:inkscape="http://www.inkscape.org/namespaces/inkscape"
   xmlns:sodipodi="http://sodipodi.sourceforge.net/DTD/sodipodi-0.dtd"
   xmlns="http://www.w3.org/2000/svg"
   xmlns:svg="http://www.w3.org/2000/svg"><sodipodi:namedview
     id="namedview7"
     pagecolor="#505050"
     bordercolor="#eeeeee"
     borderopacity="1"
     inkscape:showpageshadow="0"
     inkscape:pageopacity="0"
     inkscape:pagecheckerboard="0"
     inkscape:deskcolor="#505050"
     inkscape:document-units="mm"
     showgrid="false"
     inkscape:zoom="2.3419128"
     inkscape:cx="11.956039"
     inkscape:cy="73.017236"
     inkscape:window-width="1902"
     inkscape:window-height="1030"
     inkscape:window-x="0"
     inkscape:window-y="0"
     inkscape:window-maximized="0"
     inkscape:current-layer="g401" /><defs
     id="defs2"><inkscape:path-effect
       effect="fillet_chamfer"
       id="path-effect331"
       is_visible="true"
       lpeversion="1"
       nodesatellites_param="F,0,1,1,0,1.0583333,0,1 @ F,0,1,1,0,1.0583333,0,1 @ F,0,1,1,0,1.0583333,0,1 @ F,0,0,1,0,0.79375,0,1 @ F,0,0,1,0,1.0583333,0,1 @ F,0,1,1,0,1.0583333,0,1 @ F,0,0,1,0,1.0583333,0,1 @ F,0,0,1,0,1.0583333,0,1 @ F,0,0,1,0,1.0583333,0,1 @ F,0,0,1,0,1.0583333,0,1 @ F,0,0,1,0,1.0583333,0,1 @ F,0,0,1,0,0.79375,0,1 @ F,0,0,1,0,0.79375,0,1 @ F,0,0,1,0,1.0583333,0,1 @ F,0,0,1,0,1.0583333,0,1 @ F,0,0,1,0,1.0583333,0,1 @ F,0,0,1,0,0.79375,0,1 @ F,0,0,1,0,0.79375,0,1 @ F,0,0,1,0,1.0583333,0,1 @ F,0,0,1,0,1.0583333,0,1 @ F,0,0,1,0,1.0583333,0,1 @ F,0,0,1,0,0.79375,0,1 @ F,0,0,1,0,0.79375,0,1 @ F,0,0,1,0,1.0583333,0,1 @ F,0,0,1,0,1.0583333,0,1 @ F,0,0,1,0,1.0583333,0,1 @ F,0,1,1,0,1.0583333,0,1"
       unit="px"
       method="auto"
       mode="F"
       radius="4"
       chamfer_steps="1"
       flexible="false"
       use_knot_distance="true"
       apply_no_radius="true"
       apply_with_radius="true"
       only_selected="true"
       hide_knots="false" /><inkscape:path-effect
       effect="fillet_chamfer"
       id="path-effect354"
       is_visible="true"
       lpeversion="1"
       nodesatellites_param="F,0,1,1,0,0.79375,0,1 @ F,0,0,1,0,0,0,1 @ F,0,0,1,0,0.79375,0,1 @ F,0,0,1,0,0.79375,0,1 @ F,0,0,1,0,0.79375,0,1 @ F,0,0,1,0,0.79375,0,1 @ F,0,0,1,0,0,0,1 @ F,0,1,1,0,0.79375,0,1"
       unit="px"
       method="auto"
       mode="F"
       radius="3"
       chamfer_steps="1"
       flexible="false"
       use_knot_distance="true"
       apply_no_radius="true"
       apply_with_radius="true"
       only_selected="true"
       hide_knots="false" /><inkscape:path-effect
       effect="fillet_chamfer"
       id="path-effect352"
       is_visible="true"
       lpeversion="1"
       nodesatellites_param="F,0,0,1,0,0.52916667,0,1 @ F,0,0,1,0,0,0,1 @ F,0,1,1,0,0.79375,0,1 @ F,0,1,1,0,0.79375,0,1 @ F,0,0,1,0,0.79375,0,1 @ F,0,0,1,0,0.79375,0,1 @ F,0,0,1,0,0,0,1 @ F,0,0,1,0,0.52916667,0,1"
       unit="px"
       method="auto"
       mode="F"
       radius="3"
       chamfer_steps="1"
       flexible="false"
       use_knot_distance="true"
       apply_no_radius="true"
       apply_with_radius="true"
       only_selected="true"
       hide_knots="false" /><inkscape:path-effect
       effect="fillet_chamfer"
       id="path-effect740"
       is_visible="true"
       lpeversion="1"
       nodesatellites_param="F,0,0,1,0,0,0,2 @ F,0,0,1,0,0,0,2 @ F,0,0,1,0,0,0,2 @ F,0,0,1,0,0,0,2 @ F,0,0,1,0,0,0,2 @ F,0,0,1,0,0.89958333,0,2 @ F,0,0,1,0,0.89958333,0,2 @ F,0,0,1,0,0.89958333,0,2 @ F,0,0,1,0,0,0,2 @ F,0,0,1,0,0,0,2 @ F,0,0,1,0,0,0,2 @ F,0,1,1,0,0.84666667,0,2 @ F,0,1,1,0,0.84666667,0,2 @ F,0,1,1,0,0.84666667,0,2 @ F,0,0,1,0,0,0,2 @ F,0,0,1,0,0,0,2 @ F,0,0,1,0,0,0,2 @ F,0,0,1,0,0,0,2 @ F,0,1,1,0,0.84666667,0,2 @ F,0,1,1,0,0.84666667,0,2 @ F,0,1,1,0,0.84666667,0,2 @ F,0,1,1,0,0.84666667,0,2 @ F,0,0,1,0,0,0,2 @ F,0,0,1,0,0.84666667,0,2 @ F,0,0,1,0,0.84666667,0,2 @ F,0,0,1,0,0.84666667,0,2 @ F,0,0,1,0,0,0,2 @ F,0,0,1,0,0,0,2 @ F,0,0,1,0,0,0,2 @ F,0,0,1,0,0,0,2 @ F,0,0,1,0,0,0,2 @ F,0,0,1,0,0.84666667,0,2 @ F,0,0,1,0,0.84666667,0,2 @ F,0,0,1,0,0.84666667,0,2 @ F,0,0,1,0,0.84666667,0,2 @ F,0,0,1,0,0,0,2 @ F,0,0,1,0,0,0,2 @ F,0,0,1,0,0.89958333,0,2 @ F,0,0,1,0,0.89958333,0,2 @ F,0,0,1,0,0.89958333,0,2"
       unit="px"
       method="auto"
       mode="F"
       radius="3.2"
       chamfer_steps="1"
       flexible="false"
       use_knot_distance="true"
       apply_no_radius="true"
       apply_with_radius="true"
       only_selected="true"
       hide_knots="false" /><rect
       x="145.40143"
       y="524.26959"
       width="177.62959"
       height="95.560219"
       id="rect506" /><rect
       x="106.42785"
       y="524.64435"
       width="263.44641"
       height="214.72945"
       id="rect394" /></defs><g
     inkscape:groupmode="layer"
     id="layer2"
     inkscape:label="Vrstva 2"
     style="fill:#1a1a1a"><path
       style="fill:#1a1a1a;stroke-width:0.427001"
       d="m 101.07757,42.0563 c -3.967908,-0.0078 -5.254791,4.304688 -6.561411,7.266257 -2.789261,6.778984 -5.980378,13.476784 -7.916609,20.553884 -0.173965,3.510156 5.235004,5.736429 7.046356,2.293464 1.336004,-1.602078 1.539131,-4.346393 2.950647,-5.471789 3.193892,0 6.387787,0 9.581677,0 1.10433,2.96059 2.77703,7.897176 6.83202,7.032179 2.7647,-0.914281 3.73725,-4.278262 2.25677,-6.694414 -3.27645,-7.844207 -6.10258,-15.967547 -10.28556,-23.37916 -0.98613,-1.071363 -2.45323,-1.655432 -3.90389,-1.600421 z m 0.63549,12.727477 c 0.0853,1.449624 2.81511,4.732585 0.9766,4.908848 -0.95058,-0.400489 -4.552504,0.900199 -3.584301,-0.960404 0.643715,-1.859907 1.303931,-3.714208 1.976371,-5.563877 0.21045,0.538478 0.42089,1.076955 0.63133,1.615433 z"
       id="path980"
       transform="scale(0.26458634)" /><path
       style="fill:#1a1a1a;stroke-width:0.427001"
       d="m 100.4429,82.393753 c -6.888948,-0.122441 -13.724851,4.856666 -14.630634,11.88515 -0.760316,5.294022 -0.432169,11.138547 3.201676,15.387897 3.224532,4.08396 8.727811,5.31241 13.691568,4.68951 6.91816,0.0708 12.49651,-6.1368 13.12529,-12.77668 1.23254,-7.310291 -2.06541,-16.192693 -9.74347,-18.382748 -1.81733,-0.588308 -3.73645,-0.845522 -5.64443,-0.803129 z m 0.5988,7.374114 c 5.03217,0.02848 6.82704,5.615728 6.40753,9.775162 -0.0861,4.107631 -3.20909,8.590361 -7.784439,7.695201 -5.213327,-0.67285 -6.098457,-6.94243 -5.501813,-11.187939 0.311098,-3.471379 3.213093,-6.644631 6.878722,-6.282424 z"
       id="path982"
       transform="scale(0.26458634)" /><path
       style="fill:#1a1a1a;stroke-width:0.427001"
       d="m 141.93793,82.782391 c -2.71617,-0.185894 -5.38737,1.549901 -5.58772,4.417629 -1.12236,3.728739 -2.09546,7.499657 -3.12411,11.254656 -1.50144,-4.7321 -2.12514,-9.865185 -4.39762,-14.297875 -2.48651,-1.754224 -6.07969,-1.439414 -8.86361,-0.560439 -2.57379,1.734142 -1.35822,5.478057 -1.74887,8.084671 0.15017,7.000715 -0.44235,14.109127 0.54293,21.045667 1.69339,3.31515 7.68957,1.70229 7.12475,-2.20923 0.21189,-3.18964 0.14114,-6.38968 0.16763,-9.58418 1.37575,4.22768 1.5445,9.20043 4.49185,12.7158 2.52698,2.06982 6.48744,0.3576 7.08722,-2.78302 1.18215,-3.23183 1.90534,-6.60728 2.76717,-9.93278 0.32796,3.93409 -0.64624,8.20343 0.84817,11.94352 1.74604,2.78603 7.15883,1.85391 6.74946,-1.86979 0.27491,-8.20547 0.53814,-16.460216 -0.0275,-24.653497 -0.1647,-3.278849 -3.45141,-3.629077 -6.02972,-3.571132 z"
       id="path984"
       transform="scale(0.26458634)" /><path
       style="fill:#1a1a1a;stroke-width:0.427001"
       d="m 127.97532,42.21726 c -2.51888,-0.150026 -6.28777,-0.183415 -6.72945,3.099096 -0.9848,8.287482 -0.11633,16.690226 -0.27605,25.018778 1.55947,4.041178 6.58118,3.150097 10.02321,3.126597 4.33003,0.05553 9.12318,-0.0751 12.40771,-3.330924 4.98414,-4.649013 5.22202,-12.354798 3.72709,-18.57456 -1.4452,-5.566785 -6.92324,-9.825526 -12.75229,-9.236272 -2.13283,-0.06063 -4.26645,-0.110069 -6.40022,-0.102715 z m 3.64369,7.409975 c 2.75024,-0.196717 6.43771,0.342798 7.20481,3.591148 0.90193,4.09084 1.18366,9.472455 -2.52698,12.305479 -2.19113,0.703646 -4.56389,0.404833 -6.82952,0.600471 0,-5.500701 0,-11.001401 0,-16.502102 0.71723,0.0017 1.43446,0.0033 2.15169,0.005 z"
       id="path986"
       transform="scale(0.26458634)" /><path
       style="fill:#1a1a1a;stroke-width:0.427001"
       d="m 154.60786,41.775246 c -2.65177,0.05348 -5.19982,3.231825 -3.26006,5.606062 2.30427,4.483556 5.58686,8.543289 7.77353,12.988356 0.50727,3.93119 -0.64718,8.381383 1.33862,11.978715 2.16329,3.10238 7.50665,1.152853 7.32657,-2.600372 0.46276,-3.346103 -0.5045,-7.01944 0.57664,-10.136559 2.68778,-4.49491 6.09996,-8.659014 8.25695,-13.426912 0.57857,-3.23937 -3.44989,-5.716978 -6.0389,-3.650361 -2.87857,2.851269 -4.47912,6.724435 -6.82618,9.994501 -2.4425,-3.498245 -3.99842,-7.965476 -7.58344,-10.482384 -0.48345,-0.234242 -1.02984,-0.324341 -1.56373,-0.271046 z"
       id="path988"
       transform="scale(0.26458634)" /><path
       style="fill:#1a1a1a;stroke-width:0.427001"
       d="m 162.23217,75.917843 c -0.98108,2.081443 -4.10714,4.596154 -2.53449,7.073045 2.52608,1.773558 5.60439,-0.852693 7.44084,-2.563677 1.48375,-1.21562 4.16649,-4.061974 1.05415,-4.933867 -1.96979,0.184243 -4.12377,-0.425815 -5.9605,0.424499 z"
       id="path990"
       transform="scale(0.26458634)" /><path
       style="fill:#1a1a1a;stroke-width:0.427001"
       d="m 164.06944,82.362061 c -4.5965,0.135637 -5.74942,5.414369 -7.20611,8.806916 -2.42446,6.517409 -5.30523,12.938023 -7.07091,19.660403 -0.30261,4.01936 6.25688,5.01902 7.49504,1.35106 0.9448,-1.44022 1.0477,-3.93279 2.37928,-4.73386 3.10997,-0.0617 6.21994,-0.12368 9.3299,-0.18583 1.21849,2.71186 2.00464,7.61483 5.97552,7.19814 2.85813,-0.0818 4.69569,-3.30899 3.32847,-5.83086 -3.09903,-8.16469 -6.07592,-16.449238 -10.12213,-24.198515 -0.88432,-1.332876 -2.52828,-2.091624 -4.10906,-2.067454 z m 0.0742,11.604096 c 0.75558,2.016652 1.58504,4.169057 2.26511,6.239893 -1.36386,-0.34918 -5.50199,1.15026 -4.20834,-1.1523 0.63683,-1.594902 1.29127,-3.966122 1.94323,-5.087593 z"
       id="path992"
       transform="scale(0.26458634)" /><path
       style="fill:#1a1a1a;stroke-width:0.427001"
       d="m 191.88041,82.375405 c -5.06448,-0.0445 -11.44623,2.769356 -11.71752,8.52585 -0.79212,4.399399 2.65774,8.095013 6.63187,9.319805 3.01765,1.5092 6.99901,1.34177 9.42238,3.81216 0.88275,2.87811 -2.65994,3.84221 -4.83712,3.46271 -3.05388,0.28728 -3.77479,-3.0092 -5.2683,-4.88716 -1.76098,-2.54724 -5.85901,-1.66367 -6.52511,1.32687 -0.63917,3.39446 1.98874,6.63785 4.51937,8.61926 3.88594,2.70893 9.0934,2.13782 13.47557,1.23847 5.78231,-1.53068 9.03802,-8.62404 6.21654,-13.93426 -3.16465,-5.437354 -10.29969,-4.99441 -15.20943,-7.748574 -1.69228,-1.923348 1.99966,-3.109013 3.44854,-2.773841 3.93975,-0.384762 4.04204,5.745507 8.03797,5.392561 3.41888,-0.485299 4.53671,-5.038128 2.40605,-7.518394 -2.24138,-3.49917 -6.62439,-4.888592 -10.60081,-4.835457 z"
       id="path994"
       transform="scale(0.26458634)" /><path
       style="fill:#1a1a1a;stroke-width:0.427001"
       d="m 186.87315,75.073014 c -2.15396,-0.331026 -3.32663,2.338478 -1.58624,3.685389 1.76666,2.339754 3.89681,5.266746 7.26234,4.588552 3.55754,0.307406 5.31255,-3.6079 7.14703,-5.897972 0.66964,-2.695451 -3.66969,-2.865625 -5.30807,-1.662076 -1.17505,0.434795 -1.99134,3.332919 -3.05323,1.652963 -1.18901,-1.201608 -2.64325,-2.503699 -4.46183,-2.366856 z"
       id="path996"
       transform="scale(0.26458634)" /><path
       style="fill:#1a1a1a;stroke-width:0.427001"
       d="M 33.91325,0.61715043 C 23.777664,0.80784703 13.591208,0.25956107 3.486066,1.1033649 -0.25251115,2.0328822 0.79115149,6.7972791 0.59880274,9.5825114 0.14148469,12.141162 0.99882967,15.464234 4.0323275,15.787375 c 8.8503195,1.022318 17.8184685,0.203772 26.7134395,0.464531 2.766336,0 5.532671,0 8.299006,0 -0.483225,2.061548 1.456687,6.546232 -2.135007,5.499311 -3.121749,0.268568 -6.473166,-0.564093 -9.441568,0.446183 -2.144931,1.547546 -3.297758,4.011795 -2.938727,6.651878 -0.185852,2.882576 -0.10667,6.197557 2.596586,7.964145 2.458539,1.68749 5.855396,0.389029 8.702028,0.788552 3.817417,-1.186142 3.381319,1.894066 3.221665,4.696994 0.06973,23.114235 0.139171,46.228473 0.208523,69.342711 1.178821,3.73514 5.539006,3.57164 8.715161,3.45981 2.96971,-0.23796 7.733427,1.01444 8.937011,-2.7601 0.96858,-8.74589 0.316801,-17.615916 0.544593,-26.407362 0.0044,-16.110685 0.0018,-32.221371 0.0025,-48.332053 2.162019,0.525088 6.898933,-1.524721 5.926309,2.135007 0,30.962047 0,61.924098 0,92.886148 1.018548,3.20914 4.62548,3.89721 7.57427,3.61308 3.15955,-0.14461 7.206968,0.79361 9.320907,-2.29441 2.188958,-2.20683 0.615765,-5.76704 1.090591,-8.55101 0,-29.262937 0,-58.525875 0,-87.788815 11.700103,-0.09992 23.471985,0.19924 35.127465,-0.148786 2.76464,-1.04346 3.88919,-3.988111 3.51385,-6.764131 0.13403,-3.183375 0.29745,-7.536832 -3.45707,-8.724341 -19.698775,-0.07482 -39.397549,-0.14961 -59.096322,-0.224342 0.482481,-2.058677 -1.455652,-6.53797 2.135007,-5.488469 11.023745,-0.106624 22.129026,0.211543 33.102291,-0.158092 2.703901,-1.264921 4.045706,-4.28967 3.618508,-7.20267 C 96.729413,5.7229162 95.63959,2.2820915 92.671644,0.74113191 73.145691,0.44683876 53.485668,0.6966566 33.91325,0.61715043 Z"
       id="path574"
       transform="scale(0.26458634)" /></g><g
     inkscape:label="Vrstva 1"
     inkscape:groupmode="layer"
     id="layer1"
     style="display:inline;fill:#ffffff"><g
       id="g419"
       transform="translate(-0.93799361,-0.96993828)"
       style="fill:#ffffff"><g
         id="g401"
         style="fill:#ffffff"><g
           id="g437"
           transform="translate(-0.40019312,-0.10002423)"
           style="fill:#ffffff"><text
             xml:space="preserve"
             transform="matrix(0.18602331,0,0,0.18109751,4.4800908,-87.425209)"
             id="text392"
             style="font-size:76.8814px;font-family:'Arial Rounded MT Bold';-inkscape-font-specification:'Arial Rounded MT Bold, ';white-space:pre;shape-inside:url(#rect394);display:inline;fill:#ffffff"><tspan
               x="106.42773"
               y="593.92684"
               id="tspan674"><tspan
   style="font-size:57.661px"
   id="tspan672">A</tspan>
</tspan><tspan
               x="106.42773"
               y="690.02859"
               id="tspan676">
</tspan></text><text
             xml:space="preserve"
             style="font-size:10.5833px;font-family:'Arial Rounded MT Bold';-inkscape-font-specification:'Arial Rounded MT Bold, ';fill:#ffffff;stroke-width:0.264584"
             x="23.797771"
             y="30.927956"
             id="text502"><tspan
               sodipodi:role="line"
               id="tspan500"
               style="font-size:10.5833px;fill:#ffffff;stroke-width:0.264584"
               x="23.797771"
               y="30.927956">OMÁŠ</tspan></text><text
             xml:space="preserve"
             style="font-style:normal;font-variant:normal;font-weight:normal;font-stretch:normal;font-size:10.5833px;font-family:'Arial Rounded MT Bold';-inkscape-font-specification:'Arial Rounded MT Bold, ';fill:#ffffff;stroke-width:0.264583"
             x="32.838348"
             y="20.149956"
             id="text773"><tspan
               sodipodi:role="line"
               id="tspan771"
               style="font-style:normal;font-variant:normal;font-weight:normal;font-stretch:normal;font-size:10.5833px;font-family:'Arial Rounded MT Bold';-inkscape-font-specification:'Arial Rounded MT Bold, ';fill:#ffffff;stroke-width:0.264583"
               x="32.838348"
               y="20.149956">D</tspan></text><text
             xml:space="preserve"
             style="font-style:normal;font-variant:normal;font-weight:normal;font-stretch:normal;font-size:10.5833px;font-family:'Arial Rounded MT Bold';-inkscape-font-specification:'Arial Rounded MT Bold, ';fill:#ffffff;stroke-width:0.264583"
             x="41.352169"
             y="20.149956"
             id="text777"><tspan
               sodipodi:role="line"
               id="tspan775"
               style="font-size:10.5833px;fill:#ffffff;stroke-width:0.264583"
               x="41.352169"
               y="20.149956">Y</tspan></text></g><g
           aria-label="T"
           transform="scale(1.0242895,0.97628648)"
           id="text251"
           style="font-size:42.3627px;font-family:Arial;-inkscape-font-specification:Arial;fill:#ffffff;stroke-width:0.258308"><path
             d="M 11.394712,31.037083 V 5.0852412 H 2.1976493 a 0.79375,0.79375 45 0 1 -0.79375,-0.79375 V 2.3005013 a 0.79375,0.79375 135 0 1 0.79375,-0.79375 H 24.646018 a 0.79375,0.79375 45 0 1 0.79375,0.79375 v 1.9909899 a 0.79375,0.79375 135 0 1 -0.79375,0.79375 H 15.407585 V 31.037083 a 0.79375,0.79375 135 0 1 -0.79375,0.79375 l -2.425373,0 a 0.79375,0.79375 45 0 1 -0.79375,-0.79375 z"
             id="path215"
             inkscape:path-effect="#path-effect354"
             inkscape:original-d="M 11.394712,31.830833 V 5.0852412 H 1.4038993 V 1.5067513 H 25.439768 V 5.0852412 H 15.407585 V 31.830833 Z"
             style="fill:#ffffff" /></g><path
           d="m 18.002492,36.155831 v -25.5822 H 8.56275 A 0.79375,0.79375 45 0 1 7.769,9.779881 l 0,-1.9061325 a 0.79375,0.79375 135 0 1 0.79375,-0.79375 h 23.032205 a 0.79375,0.79375 45 0 1 0.79375,0.79375 V 9.779881 a 0.79375,0.79375 135 0 1 -0.79375,0.79375 h -9.482116 v 25.5822 a 0.52916667,0.52916667 135 0 1 -0.529167,0.529167 h -3.052013 a 0.52916667,0.52916667 45 0 1 -0.529167,-0.529167 z"
           id="path475"
           inkscape:path-effect="#path-effect352"
           inkscape:original-d="M 18.002492,36.684998 V 10.573631 H 7.769 V 7.0799985 H 32.388705 V 10.573631 H 22.112839 v 26.111367 z"
           style="font-size:43.3917px;font-family:Arial;-inkscape-font-specification:Arial;fill:#ffffff;stroke-width:0.258309" /></g></g></g></svg>
