<?xml version="1.0" encoding="UTF-8" standalone="no"?>
<!-- Created with Inkscape (http://www.inkscape.org/) -->

<svg
   width="206.056"
   height="137.11501"
   viewBox="0 0 54.519604 36.278758"
   version="1.1"
   id="svg5"
   xml:space="preserve"
   sodipodi:docname="logo2.svg"
   inkscape:version="1.2 (dc2aedaf03, 2022-05-15)"
   xmlns:inkscape="http://www.inkscape.org/namespaces/inkscape"
   xmlns:sodipodi="http://sodipodi.sourceforge.net/DTD/sodipodi-0.dtd"
   xmlns="http://www.w3.org/2000/svg"
   xmlns:svg="http://www.w3.org/2000/svg"><sodipodi:namedview
     id="namedview7"
     pagecolor="#505050"
     bordercolor="#eeeeee"
     borderopacity="1"
     inkscape:showpageshadow="0"
     inkscape:pageopacity="0"
     inkscape:pagecheckerboard="0"
     inkscape:deskcolor="#505050"
     inkscape:document-units="mm"
     showgrid="false"
     inkscape:zoom="4.0773542"
     inkscape:cx="79.218039"
     inkscape:cy="28.695079"
     inkscape:window-width="1920"
     inkscape:window-height="1001"
     inkscape:window-x="-9"
     inkscape:window-y="-9"
     inkscape:window-maximized="1"
     inkscape:current-layer="layer2" /><defs
     id="defs2"><inkscape:path-effect
       effect="fillet_chamfer"
       id="path-effect354"
       is_visible="true"
       lpeversion="1"
       nodesatellites_param="F,0,1,1,0,0.79375,0,1 @ F,0,0,1,0,0,0,1 @ F,0,0,1,0,0.79375,0,1 @ F,0,0,1,0,0.79375,0,1 @ F,0,0,1,0,0.79375,0,1 @ F,0,0,1,0,0.79375,0,1 @ F,0,0,1,0,0,0,1 @ F,0,1,1,0,0.79375,0,1"
       unit="px"
       method="auto"
       mode="F"
       radius="3"
       chamfer_steps="1"
       flexible="false"
       use_knot_distance="true"
       apply_no_radius="true"
       apply_with_radius="true"
       only_selected="true"
       hide_knots="false" /><inkscape:path-effect
       effect="fillet_chamfer"
       id="path-effect352"
       is_visible="true"
       lpeversion="1"
       nodesatellites_param="F,0,0,1,0,0.79375,0,1 @ F,0,0,1,0,0,0,1 @ F,0,0,1,0,0.79375,0,1 @ F,0,0,1,0,0.79375,0,1 @ F,0,1,1,0,0.79375,0,1 @ F,0,1,1,0,0.79375,0,1 @ F,0,0,1,0,0,0,1 @ F,0,0,1,0,0.79375,0,1"
       unit="px"
       method="auto"
       mode="F"
       radius="3"
       chamfer_steps="1"
       flexible="false"
       use_knot_distance="true"
       apply_no_radius="true"
       apply_with_radius="true"
       only_selected="true"
       hide_knots="false" /><inkscape:path-effect
       effect="fillet_chamfer"
       id="path-effect740"
       is_visible="true"
       lpeversion="1"
       nodesatellites_param="F,0,0,1,0,0,0,2 @ F,0,0,1,0,0,0,2 @ F,0,0,1,0,0,0,2 @ F,0,0,1,0,0,0,2 @ F,0,0,1,0,0,0,2 @ F,0,0,1,0,0.89958333,0,2 @ F,0,0,1,0,0.89958333,0,2 @ F,0,0,1,0,0.89958333,0,2 @ F,0,0,1,0,0,0,2 @ F,0,0,1,0,0,0,2 @ F,0,0,1,0,0,0,2 @ F,0,1,1,0,0.84666667,0,2 @ F,0,1,1,0,0.84666667,0,2 @ F,0,1,1,0,0.84666667,0,2 @ F,0,0,1,0,0,0,2 @ F,0,0,1,0,0,0,2 @ F,0,0,1,0,0,0,2 @ F,0,0,1,0,0,0,2 @ F,0,1,1,0,0.84666667,0,2 @ F,0,1,1,0,0.84666667,0,2 @ F,0,1,1,0,0.84666667,0,2 @ F,0,1,1,0,0.84666667,0,2 @ F,0,0,1,0,0,0,2 @ F,0,0,1,0,0.84666667,0,2 @ F,0,0,1,0,0.84666667,0,2 @ F,0,0,1,0,0.84666667,0,2 @ F,0,0,1,0,0,0,2 @ F,0,0,1,0,0,0,2 @ F,0,0,1,0,0,0,2 @ F,0,0,1,0,0,0,2 @ F,0,0,1,0,0,0,2 @ F,0,0,1,0,0.84666667,0,2 @ F,0,0,1,0,0.84666667,0,2 @ F,0,0,1,0,0.84666667,0,2 @ F,0,0,1,0,0.84666667,0,2 @ F,0,0,1,0,0,0,2 @ F,0,0,1,0,0,0,2 @ F,0,0,1,0,0.89958333,0,2 @ F,0,0,1,0,0.89958333,0,2 @ F,0,0,1,0,0.89958333,0,2"
       unit="px"
       method="auto"
       mode="F"
       radius="3.2"
       chamfer_steps="1"
       flexible="false"
       use_knot_distance="true"
       apply_no_radius="true"
       apply_with_radius="true"
       only_selected="true"
       hide_knots="false" /><rect
       x="145.40143"
       y="524.26959"
       width="177.62959"
       height="95.560219"
       id="rect506" /><rect
       x="106.42785"
       y="524.64435"
       width="263.44641"
       height="214.72945"
       id="rect394" /></defs><g
     inkscape:groupmode="layer"
     id="layer2"
     inkscape:label="Vrstva 2"
     style="display:inline;fill:#1a1a1a"><path
       style="fill:#1a1a1a;stroke-width:0.0997896"
       d="m 100.19736,82.289019 c -4.078784,-0.07663 -8.161908,1.668775 -10.847055,4.755989 -2.893325,3.167558 -4.049707,7.583892 -3.945024,11.799344 -0.103251,3.172378 0.80958,6.337998 2.41797,9.059028 2.197637,3.5799 6.003611,6.11426 10.169015,6.70657 2.220854,0.36094 4.527084,0.18307 6.699744,-0.37768 3.0414,-0.831 5.90612,-2.53867 7.74673,-5.14252 2.14469,-2.91599 3.21842,-6.54913 3.17431,-10.157067 0.18585,-4.90568 -1.54794,-10.087118 -5.38974,-13.296284 -2.71667,-2.274661 -6.2832,-3.460593 -9.81877,-3.348159 -0.0691,2.6e-4 -0.13812,5.19e-4 -0.20718,7.79e-4 z m 0.74238,6.207811 c 3.01172,-0.02588 5.8325,2.018284 6.91998,4.799432 1.11828,2.718971 1.14179,5.779131 0.62715,8.638268 -0.58841,3.26329 -3.25937,6.17887 -6.62759,6.57811 -2.243251,0.28353 -4.665532,-0.10113 -6.433697,-1.60053 -2.385541,-1.8934 -3.284228,-5.05859 -3.224343,-8.001101 0.05161,-2.415232 0.252668,-5.003731 1.607634,-7.081751 1.47802,-2.165918 4.125069,-3.464199 6.742216,-3.328475 0.12952,-0.0035 0.25909,-0.003 0.38865,-0.004 z"
       id="path218"
       transform="scale(0.26458634)" /><path
       style="fill:#1a1a1a;stroke-width:0.0997896"
       d="m 99.824902,42.360696 c -1.067963,0.120446 -2.422807,-0.308233 -3.210744,0.623775 -0.828163,1.634346 -1.374619,3.409328 -2.09238,5.098789 -3.061577,7.773353 -6.149367,15.536568 -9.17982,23.322063 -0.363718,1.01649 0.509969,2.12801 1.574169,2.070434 1.3779,0.0275 2.778616,0.131307 4.143428,-0.03997 1.156799,-0.299211 1.247328,-1.705491 1.688664,-2.625495 0.729908,-1.957365 1.458034,-3.915379 2.185237,-5.873749 3.369655,2.6e-4 6.739304,5.2e-4 10.108964,7.79e-4 1.05223,2.588819 2.00595,5.228984 3.11975,7.785766 0.60618,1.131974 2.05354,0.718548 3.09975,0.795167 1.06124,-0.06768 2.19746,0.157257 3.1958,-0.283972 0.78186,-0.484378 0.9196,-1.54386 0.45685,-2.298226 -3.90702,-9.245103 -7.75392,-18.521622 -11.68424,-27.753055 -0.65521,-1.28195 -2.26805,-0.721736 -3.405428,-0.822303 z m 0.121814,9.407511 c 0.910754,2.414381 1.847284,4.81891 2.778124,7.225587 -1.82609,0.01176 -3.748681,0.0117 -5.574768,0 0.933812,-2.43465 1.863211,-4.871145 2.761562,-7.31914 l 0.03504,0.09344 z"
       id="path220"
       transform="scale(0.26458634)" /><path
       style="fill:#1a1a1a;stroke-width:0.0997896"
       d="m 121.58586,42.151566 c -0.93429,0.419092 -0.97925,1.506838 -0.9135,2.391638 0.0138,9.222734 -0.0275,18.451218 0.0206,27.670367 0.0444,1.049794 1.1642,1.588752 2.10906,1.418138 4.16686,-0.07304 8.34103,0.03883 12.50283,-0.19765 2.76489,-0.330234 5.56855,-1.29482 7.53093,-3.353092 3.01459,-2.897927 4.20228,-7.174923 4.41551,-11.241229 0.16663,-4.208214 -0.58032,-8.691135 -3.20186,-12.10506 -2.1856,-2.881084 -5.75218,-4.632517 -9.36983,-4.593733 -4.19039,-0.09342 -8.38826,-0.102278 -12.5762,-0.09561 -0.17251,0.03541 -0.34503,0.07082 -0.51755,0.106232 z m 8.40007,6.219701 c 1.95158,0.05076 3.90463,-0.106364 5.85465,0.3058 2.50069,0.713479 3.94606,3.270233 4.33058,5.70019 0.45378,3.021753 0.38105,6.220413 -0.72827,9.098942 -0.65774,1.707393 -2.11362,3.117979 -3.94008,3.472894 -1.92517,0.407709 -3.91795,0.221976 -5.87254,0.312241 -0.74187,0.0093 -1.48375,0.01857 -2.22562,0.02786 0,-6.305977 0,-12.611954 0,-18.91793 0.86042,0 1.72085,0 2.58128,0 z"
       id="path222"
       transform="scale(0.26458634)" /><path
       style="fill:#1a1a1a;stroke-width:0.0997896"
       d="m 143.71324,82.775689 c -1.06215,0.09028 -2.19873,-0.160932 -3.20577,0.22215 -0.97997,0.615242 -0.98856,1.936041 -1.44267,2.904715 -2.07961,6.036978 -4.16505,12.071985 -6.22512,18.115656 -2.29783,-6.744823 -4.50241,-13.558313 -6.80784,-20.312236 -0.40139,-1.057963 -1.65659,-0.992776 -2.58915,-0.953674 -1.57673,0.04072 -3.17052,-0.08202 -4.73647,0.06185 -1.00542,0.136874 -1.35977,1.27067 -1.22713,2.156714 0.0137,9.312263 -0.0275,18.630266 0.0206,27.938946 0.0442,1.0453 1.15595,1.58478 2.09816,1.4224 1.20124,-0.0582 2.42852,0.13297 3.6084,-0.12981 0.92781,-0.42282 0.97019,-1.50549 0.90588,-2.38735 0.004,-4.78873 0.003,-9.57746 0.0104,-14.366194 1.81581,5.292444 3.57703,10.609444 5.42183,15.888244 0.42608,1.0921 1.72799,0.96695 2.68549,0.94521 1.07381,-0.10867 2.43516,0.3448 3.23468,-0.58298 0.70074,-1.32058 1.02187,-2.8176 1.56954,-4.20932 1.35473,-3.90237 2.70942,-7.80474 4.06419,-11.707094 0.0244,5.042594 -0.006,10.091044 0.0526,15.129964 0.0464,1.04394 1.15674,1.58139 2.09795,1.41933 1.20098,-0.0582 2.42801,0.13298 3.60763,-0.12981 0.92812,-0.42295 0.9702,-1.50607 0.90531,-2.38813 -0.0138,-9.21363 0.0275,-18.433024 -0.0206,-27.643078 -0.0442,-1.053881 -1.16863,-1.587519 -2.11431,-1.415843 -0.63785,0.0068 -1.27571,0.01356 -1.91357,0.02034 z"
       id="path224"
       transform="scale(0.26458634)" /><path
       style="fill:#1a1a1a;stroke-width:0.0997896"
       d="m 159.6595,82.932 c -1.03844,0.581771 -1.09865,1.919402 -1.59143,2.894452 -3.38368,8.827894 -6.79463,17.645618 -10.15646,26.481708 -0.36458,1.03673 0.56935,2.1649 1.65294,2.0252 1.43948,-0.0873 2.91227,0.10634 4.32703,-0.18962 1.03472,-0.59777 1.06721,-1.94376 1.54089,-2.93089 0.66848,-1.85328 1.33701,-3.70654 2.00554,-5.55981 3.32087,-7.8e-4 6.64173,-0.002 9.96259,-0.002 1.00994,2.59407 1.9613,5.21265 3.03072,7.78261 0.56491,1.06421 1.87244,0.85364 2.87383,0.88007 1.11776,-0.0807 2.30744,0.15487 3.36856,-0.22867 0.90915,-0.46388 0.95738,-1.65869 0.46677,-2.4523 -3.82957,-9.31951 -7.6103,-18.665234 -11.47016,-27.968468 -0.54042,-1.131446 -1.93071,-0.82677 -2.94735,-0.861757 -1.01939,0.05047 -2.06597,-0.123206 -3.06347,0.129805 z m 2.77033,9.447855 c 0.86875,2.418133 1.75239,4.831002 2.66489,7.232994 -1.81566,0.0043 -3.65138,0.0094 -5.44633,-0.009 0.90953,-2.47016 1.86142,-4.925234 2.71284,-7.416396 0.0229,0.06412 0.0457,0.128246 0.0686,0.192368 z"
       id="path226"
       transform="scale(0.26458634)" /><path
       style="fill:#1a1a1a;stroke-width:0.0997896"
       d="m 161.93108,75.597462 c -1.00935,0.586198 -1.17536,1.872218 -1.74436,2.808936 -0.54047,1.291613 -1.34946,2.490277 -1.67733,3.856504 -0.0161,1.019383 0.9741,1.687581 1.92549,1.61107 1.01117,-0.02077 2.08706,0.181887 3.04651,-0.165756 0.95437,-0.691636 1.50245,-1.804424 2.28515,-2.673644 0.82334,-1.099576 1.74377,-2.133174 2.51911,-3.264541 0.53092,-1.033128 -0.37191,-2.313661 -1.50347,-2.273918 -1.50709,-0.02187 -3.03215,-0.09258 -4.52929,0.0334 -0.10727,0.02265 -0.21454,0.0453 -0.32181,0.06795 z"
       id="path228"
       transform="scale(0.26458634)" /><path
       style="fill:#1a1a1a;stroke-width:0.0997896"
       d="m 172.59259,42.167938 c -0.96311,0.606147 -1.34116,1.770002 -2.02705,2.637447 -2.01565,3.088467 -4.11583,6.169629 -6.04246,9.288193 -2.3607,-3.86384 -4.84906,-7.654521 -7.34899,-11.425125 -0.77057,-0.973623 -2.12911,-0.51472 -3.19499,-0.624505 -0.98192,0.05961 -2.01747,-0.132121 -2.96399,0.153634 -1.07891,0.335381 -1.26564,1.805636 -0.53377,2.577848 3.45089,5.210378 6.93615,10.39793 10.40624,15.595539 0.0138,3.940829 -0.0276,7.887429 0.0206,11.824671 0.0442,1.045305 1.15595,1.584781 2.09816,1.422401 1.2342,-0.0612 2.49556,0.137776 3.7082,-0.129804 0.92797,-0.42289 0.97021,-1.505784 0.90557,-2.387739 9.7e-4,-3.550588 0.002,-7.101176 0.002,-10.651763 3.70786,-5.374036 7.45472,-10.727914 11.14259,-16.111578 0.6507,-0.987724 -0.22542,-2.381388 -1.38465,-2.299023 -1.5187,0.05204 -3.05928,-0.105539 -4.56378,0.08247 -0.0747,0.01578 -0.14945,0.03156 -0.22417,0.04734 z"
       id="path230"
       transform="scale(0.26458634)" /><path
       style="fill:#1a1a1a;stroke-width:0.0997896"
       d="m 184.13992,75.668601 c -0.97048,-0.008 -2.30472,-0.06515 -2.70738,1.04642 -0.49278,1.136555 0.61755,2.016623 1.19136,2.857701 1.10155,1.366082 2.09275,2.838465 3.27121,4.131599 0.83184,0.696101 2.01192,0.275216 3.00526,0.365643 1.02238,-0.04134 2.32153,0.20037 2.95758,-0.823619 1.37555,-1.752417 2.8455,-3.443775 4.16316,-5.23364 0.69635,-1.003597 -0.27196,-2.434947 -1.4514,-2.298291 -1.39135,0.05746 -2.83444,-0.219384 -4.19275,0.155501 -0.80907,0.334222 -1.11341,1.240897 -1.61007,1.892904 -0.62144,-0.855687 -1.13801,-2.204359 -2.41269,-2.095582 -0.73809,5.12e-4 -1.47619,-0.0013 -2.21428,0.0014 z"
       id="path232"
       transform="scale(0.26458634)" /><path
       style="fill:#1a1a1a;stroke-width:0.0997896"
       d="m 188.81522,82.261538 c -3.5092,0.04896 -7.32118,1.140382 -9.55251,4.023354 -1.21131,1.561079 -1.9119,3.537165 -1.75566,5.524681 -0.16243,2.873414 1.70182,5.541235 4.1204,6.943759 2.63703,1.564668 5.72824,2.025788 8.63724,2.855738 1.67051,0.52182 3.6908,0.70593 4.8365,2.19046 0.46222,0.59229 0.22437,1.39959 0.22804,2.08857 -0.61696,1.75172 -2.63845,2.30655 -4.29211,2.49441 -2.41946,0.27103 -5.1412,-0.1675 -6.92604,-1.94694 -0.91546,-0.92052 -1.0853,-2.2749 -1.36351,-3.47536 -0.42451,-1.07637 -1.72317,-1.1369 -2.70058,-0.99198 -0.99511,0.17334 -2.13204,-0.0311 -3.0105,0.51714 -0.94269,0.69379 -0.591,2.0023 -0.50491,3.00046 0.58761,3.68608 3.26355,6.92747 6.7747,8.19924 3.1819,1.19514 6.71006,1.38521 10.0365,0.76091 3.21623,-0.64665 6.29874,-2.58533 7.73097,-5.61682 0.70067,-1.34124 1.02466,-2.85141 0.91576,-4.36189 0.13203,-3.08101 -1.89497,-5.892729 -4.48306,-7.39384 -3.3512,-1.864615 -7.27434,-2.209088 -10.84723,-3.374207 -1.00669,-0.345202 -2.40042,-0.690301 -2.60817,-1.924732 -0.25516,-1.266803 0.74306,-2.393928 1.89074,-2.766628 1.47912,-0.604809 3.11582,-0.30393 4.66897,-0.348073 1.83668,0.02785 3.55667,1.402244 3.88331,3.232032 0.12389,0.827483 0.33624,1.856794 1.30092,2.047459 1.24986,0.119281 2.53445,-0.113607 3.7945,-0.182623 1.05031,-0.0068 1.74122,-1.059986 1.55599,-2.047459 -0.22102,-3.387219 -2.33363,-6.584826 -5.42732,-8.018248 -2.14041,-1.021303 -4.54101,-1.451872 -6.90294,-1.429413 z"
       id="path234"
       transform="scale(0.26458634)" /><path
       style="fill:#1a1a1a;stroke-width:0.245257"
       d="M 48.438274,0.56476193 C 33.794087,0.63590336 19.143945,0.41622332 4.5037248,0.78223597 2.2317491,0.64644085 0.46140875,2.7433576 0.62655521,4.9415472 0.64787041,7.8653447 0.27147762,10.871516 0.87803952,13.746372 1.7485959,15.82119 4.127714,16.70456 6.2509502,16.471237 c 10.9381268,0.216655 21.8795938,0.09879 32.8191728,0.131997 0,1.684546 0,3.369092 0,5.053637 -3.830719,0.137589 -7.715888,-0.287836 -11.514148,0.289327 -2.254467,0.585842 -3.324184,2.954432 -3.159601,5.130758 0.07849,2.690004 -0.211594,5.473206 0.323588,8.09448 0.984551,1.399773 2.437024,2.837612 4.334289,2.417773 3.338785,0.03742 6.677568,0.07487 10.016353,0.112363 0.07465,24.093234 -0.133744,48.189306 0.197103,72.280638 -0.312246,2.26433 1.168513,4.6453 3.477442,5.05007 3.701591,0.25039 7.457902,0.29194 11.155364,-0.0575 2.446655,-0.24102 3.747055,-2.79413 3.518387,-5.04406 0.285025,-20.801804 0.07558,-41.60848 0.142006,-62.41218 8.8e-5,-3.274405 1.74e-4,-6.54881 2.62e-4,-9.823216 1.848049,0 3.696101,0 5.54415,0 0.05614,29.933829 -0.119701,59.868908 0.10299,89.801936 0.248716,2.45989 -0.31724,5.23172 0.961867,7.45926 1.931573,1.95777 4.997665,1.09315 7.449203,1.33077 2.473459,-0.15404 5.052814,0.34475 7.448249,-0.29705 1.298808,-1.12922 2.742776,-2.45332 2.283479,-4.36097 0,-31.31148 0,-62.622952 0,-93.934426 11.781633,-0.09169 23.573314,0.194543 35.348634,-0.218431 2.44345,-0.23294 3.75141,-2.888812 3.54473,-5.134114 -0.11338,-2.896035 0.65724,-6.107533 -0.8105,-8.764108 -1.67115,-2.4211 -4.95808,-1.656091 -7.45537,-1.864905 -18.138812,-0.11002 -36.278338,-0.0313 -54.417432,-0.05644 0,-1.684545 0,-3.369091 0,-5.053637 11.720282,-0.08565 23.452405,0.195505 35.16517,-0.244778 2.088305,-0.365895 3.714099,-2.310387 3.466174,-4.466362 C 96.113502,8.9590601 96.706002,5.8993519 95.865341,3.0465529 95.271954,0.77367527 92.545382,0.869887 90.673396,0.76121118 76.601285,0.3993877 62.514189,0.63204176 48.438274,0.56476193 Z"
       id="path336"
       transform="scale(0.26458634)" /></g><g
     inkscape:label="Vrstva 1"
     inkscape:groupmode="layer"
     id="layer1"
     style="fill:#ffffff"><g
       id="g419"
       transform="translate(-0.93799361,-0.96993828)"
       style="fill:#ffffff"><g
         id="g437"
         transform="translate(-0.40019312,-0.10002423)"
         style="fill:#ffffff"><text
           xml:space="preserve"
           transform="matrix(0.18602331,0,0,0.18109751,4.4800908,-87.425209)"
           id="text392"
           style="font-size:76.8814px;font-family:'Arial Rounded MT Bold';-inkscape-font-specification:'Arial Rounded MT Bold, ';white-space:pre;shape-inside:url(#rect394);display:inline;fill:#ffffff"><tspan
             x="106.42773"
             y="593.92684"
             id="tspan377"><tspan
   style="font-size:57.661px;font-family:Arial;-inkscape-font-specification:Arial"
   id="tspan375">A</tspan>
</tspan><tspan
             x="106.42773"
             y="690.02859"
             id="tspan379">
</tspan></text><text
           xml:space="preserve"
           style="font-size:10.5833px;font-family:'Arial Rounded MT Bold';-inkscape-font-specification:'Arial Rounded MT Bold, ';fill:#ffffff;stroke-width:0.264584"
           x="23.797771"
           y="30.927956"
           id="text502"><tspan
             sodipodi:role="line"
             id="tspan500"
             style="font-style:normal;font-variant:normal;font-weight:normal;font-stretch:normal;font-size:10.5833px;font-family:Arial;-inkscape-font-specification:Arial;fill:#ffffff;stroke-width:0.264584"
             x="23.797771"
             y="30.927956">OMÁŠ</tspan></text><text
           xml:space="preserve"
           style="font-style:normal;font-variant:normal;font-weight:normal;font-stretch:normal;font-size:10.5833px;font-family:'Arial Rounded MT Bold';-inkscape-font-specification:'Arial Rounded MT Bold, ';fill:#ffffff;stroke-width:0.264583"
           x="32.838348"
           y="20.149956"
           id="text773"><tspan
             sodipodi:role="line"
             id="tspan771"
             style="font-style:normal;font-variant:normal;font-weight:normal;font-stretch:normal;font-size:10.5833px;font-family:Arial;-inkscape-font-specification:Arial;fill:#ffffff;stroke-width:0.264583"
             x="32.838348"
             y="20.149956">D</tspan></text><text
           xml:space="preserve"
           style="font-style:normal;font-variant:normal;font-weight:normal;font-stretch:normal;font-size:10.5833px;font-family:'Arial Rounded MT Bold';-inkscape-font-specification:'Arial Rounded MT Bold, ';fill:#ffffff;stroke-width:0.264583"
           x="41.352169"
           y="20.149956"
           id="text777"><tspan
             sodipodi:role="line"
             id="tspan775"
             style="font-style:normal;font-variant:normal;font-weight:normal;font-stretch:normal;font-size:10.5833px;font-family:Arial;-inkscape-font-specification:Arial;fill:#ffffff;stroke-width:0.264583"
             x="41.352169"
             y="20.149956">Y</tspan></text></g><g
         aria-label="T"
         transform="scale(1.0242895,0.97628648)"
         id="text251"
         style="font-size:42.3627px;font-family:Arial;-inkscape-font-specification:Arial;fill:#ffffff;stroke-width:0.258308"><path
           d="M 11.394712,31.037083 V 5.0852412 H 2.1976493 a 0.79375,0.79375 45 0 1 -0.79375,-0.79375 V 2.3005013 a 0.79375,0.79375 135 0 1 0.79375,-0.79375 H 24.646018 a 0.79375,0.79375 45 0 1 0.79375,0.79375 v 1.9909899 a 0.79375,0.79375 135 0 1 -0.79375,0.79375 H 15.407585 V 31.037083 a 0.79375,0.79375 135 0 1 -0.79375,0.79375 l -2.425373,0 a 0.79375,0.79375 45 0 1 -0.79375,-0.79375 z"
           id="path215"
           inkscape:path-effect="#path-effect354"
           inkscape:original-d="M 11.394712,31.830833 V 5.0852412 H 1.4038993 V 1.5067513 H 25.439768 V 5.0852412 H 15.407585 V 31.830833 Z"
           style="fill:#ffffff" /></g><g
         aria-label="T"
         id="text305"
         style="font-size:43.3917px;font-family:Arial;-inkscape-font-specification:Arial;fill:#ffffff;stroke-width:0.264583"
         transform="matrix(1,0,0,0.95313491,0,0.33180473)"><path
           d="m 18.002492,37.346909 0,-26.601498 H 8.56275 A 0.79375,0.79375 45 0 1 7.769,9.951661 V 7.8737485 a 0.79375,0.79375 135 0 1 0.79375,-0.79375 h 23.032205 a 0.79375,0.79375 45 0 1 0.79375,0.79375 V 9.951661 a 0.79375,0.79375 135 0 1 -0.79375,0.79375 h -9.482116 v 26.601498 a 0.79375,0.79375 135 0 1 -0.79375,0.79375 h -2.522847 a 0.79375,0.79375 45 0 1 -0.79375,-0.79375 z"
           id="path475"
           inkscape:path-effect="#path-effect352"
           inkscape:original-d="M 18.002492,38.140659 V 10.745411 H 7.769 V 7.0799985 H 32.388705 V 10.745411 H 22.112839 v 27.395248 z"
           style="fill:#ffffff" /></g></g></g></svg>
